<svg width="35" height="35" viewBox="0 0 35 35" fill="none" xmlns="http://www.w3.org/2000/svg">
<path fill-rule="evenodd" clip-rule="evenodd" d="M22.9323 32.0833V20.7885H26.7239L27.2912 16.3873H22.9308V13.5771C22.9308 12.3025 23.2852 11.4333 25.1139 11.4333H27.4443V7.49582C26.3157 7.37572 25.1814 7.3173 24.0464 7.32082C20.6864 7.32082 18.3866 9.3727 18.3866 13.1396V16.3873H14.5833V20.7885H18.3852V32.0833H4.52663C3.63704 32.0833 2.91663 31.3629 2.91663 30.4733V4.52666C2.91663 3.63707 3.63704 2.91666 4.52663 2.91666H30.4733C31.3629 2.91666 32.0833 3.63707 32.0833 4.52666V30.4733C32.0833 31.3629 31.3629 32.0833 30.4733 32.0833H22.9323Z" fill="#7B716D"/>
</svg>
