<svg width="35" height="35" viewBox="0 0 35 35" fill="none" xmlns="http://www.w3.org/2000/svg">
<path d="M29.75 1.75H5.25C3.325 1.75 1.75 3.325 1.75 5.25V29.75C1.75 31.6768 3.325 33.25 5.25 33.25H29.75C31.675 33.25 33.25 31.6768 33.25 29.75V5.25C33.25 3.325 31.675 1.75 29.75 1.75ZM17.472 27.1652C20.0425 27.1648 22.5076 26.1433 24.325 24.3255C26.1425 22.5078 27.1635 20.0425 27.1635 17.472C27.1635 16.8805 27.0882 16.31 26.9832 15.75H29.75V28.378C29.75 28.537 29.7186 28.6945 29.6576 28.8413C29.5966 28.9882 29.5072 29.1215 29.3945 29.2337C29.2818 29.3459 29.1481 29.4347 29.001 29.4951C28.8538 29.5555 28.6963 29.5862 28.5372 29.5855H6.46275C6.30374 29.5862 6.14615 29.5555 5.99905 29.4951C5.85194 29.4347 5.71821 29.3459 5.60552 29.2337C5.49284 29.1215 5.40343 28.9882 5.34241 28.8413C5.2814 28.6945 5.25 28.537 5.25 28.378V15.75H7.96075C7.854 16.31 7.77875 16.8805 7.77875 17.472C7.77921 20.0427 8.80061 22.5079 10.6184 24.3256C12.4361 26.1434 14.9013 27.1648 17.472 27.1652ZM11.4152 17.472C11.4152 16.6766 11.5719 15.889 11.8763 15.1542C12.1807 14.4193 12.6268 13.7517 13.1892 13.1892C13.7517 12.6268 14.4193 12.1807 15.1542 11.8763C15.889 11.5719 16.6766 11.4152 17.472 11.4152C18.2674 11.4152 19.055 11.5719 19.7898 11.8763C20.5247 12.1807 21.1923 12.6268 21.7548 13.1892C22.3172 13.7517 22.7633 14.4193 23.0677 15.1542C23.3721 15.889 23.5287 16.6766 23.5287 17.472C23.5287 19.0784 22.8906 20.6189 21.7548 21.7548C20.6189 22.8906 19.0784 23.5287 17.472 23.5287C15.8657 23.5287 14.3251 22.8906 13.1892 21.7548C12.0534 20.6189 11.4152 19.0784 11.4152 17.472ZM28.5372 10.5H25.711C25.3901 10.4991 25.0826 10.3712 24.8557 10.1443C24.6288 9.91738 24.5009 9.60989 24.5 9.289V6.45925C24.5 5.79075 25.0425 5.25 25.7092 5.25H28.5355C29.2075 5.25 29.75 5.79075 29.75 6.45925V9.28725C29.75 9.954 29.2075 10.5 28.5372 10.5Z" fill="#7B716D"/>
</svg>
