<svg width="37" height="29" viewBox="0 0 37 29" fill="none" xmlns="http://www.w3.org/2000/svg">
<path d="M35.421 3.89564C34.9698 2.31626 33.8416 1.18814 32.2623 0.736888C27.5241 0.285638 22.786 -0.165612 18.0479 0.0600131C13.3098 0.0600131 8.57166 0.285638 3.83354 0.736888C2.47979 1.18814 1.12604 2.54189 0.674789 3.89564C-0.22493 10.9366 -0.22493 18.0634 0.674789 25.1044C1.12604 26.6837 2.25416 27.8119 3.83354 28.2631C8.57166 28.7144 13.3098 29.1656 18.0479 28.94C22.786 28.94 27.5241 28.7144 32.2623 28.2631C33.8416 27.8119 34.9698 26.6837 35.421 25.1044C36.3207 18.0634 36.3207 10.9366 35.421 3.89564V3.89564ZM13.5354 21.2687V7.73126L25.2679 14.5L13.5354 21.2687Z" fill="#7B716D"/>
</svg>
